<?xml version="1.0" encoding="UTF-8" standalone="no"?>
<svg
   xmlns:dc="http://purl.org/dc/elements/1.1/"
   xmlns:cc="http://creativecommons.org/ns#"
   xmlns:rdf="http://www.w3.org/1999/02/22-rdf-syntax-ns#"
   xmlns:svg="http://www.w3.org/2000/svg"
   xmlns="http://www.w3.org/2000/svg"
   xmlns:sodipodi="http://sodipodi.sourceforge.net/DTD/sodipodi-0.dtd"
   xmlns:inkscape="http://www.inkscape.org/namespaces/inkscape"
   width="762.03088"
   height="581.47449"
   viewBox="0 0 86.403329 65.954998"
   version="1.1"
   id="svg62"
   sodipodi:docname="inholland.svg"
   inkscape:version="0.92.1 r15371">
  <metadata
     id="metadata68">
    <rdf:RDF>
      <cc:Work
         rdf:about="">
        <dc:format>image/svg+xml</dc:format>
        <dc:type
           rdf:resource="http://purl.org/dc/dcmitype/StillImage" />
        <dc:title></dc:title>
      </cc:Work>
    </rdf:RDF>
  </metadata>
  <defs
     id="defs66" />
  <sodipodi:namedview
     pagecolor="#ffffff"
     bordercolor="#666666"
     borderopacity="1"
     objecttolerance="10"
     gridtolerance="10"
     guidetolerance="10"
     inkscape:pageopacity="0"
     inkscape:pageshadow="2"
     inkscape:window-width="1920"
     inkscape:window-height="1025"
     id="namedview64"
     showgrid="false"
     inkscape:zoom="0.1629174"
     inkscape:cx="-645.99674"
     inkscape:cy="343.62278"
     inkscape:window-x="1080"
     inkscape:window-y="500"
     inkscape:window-maximized="1"
     inkscape:current-layer="svg62" />
  <path
     d="M 55.507054,45.637 V 3.544 L 65.406054,0 v 18.079 h 0.131 c 1.516,-2.814 4.876,-5.309 9.425,-5.309 8.832,0 11.421,6.652 11.421,13.053 v 19.814 h -9.894 V 28.126 c 0,-3.519 -1.028,-6.718 -5.064,-6.718 -3.968,0 -6.022,3.199 -6.022,6.847 v 17.383 h -9.896 z m -38.577,-28.277 9.008,-3.226 v 3.586 h 0.084 c 1.446,-2.686 4.659,-6.074 9.77,-6.074 8.832,0 11.32,6.651 11.32,13.052 v 41.257 l -9.7,-4.02 -0.007,-34.934 c 0,-3.52 -1.029,-6.719 -5.065,-6.719 -3.968,0 -6.021,3.199 -6.021,6.848 l -0.012,30.23 -9.376,-3.885 V 17.36 Z M 9.0080537,20.205 V 50.196 L -0.05194625,46.448 V 23.455 Z"
     id="path60"
     inkscape:connector-curvature="0"
     style="fill:#000000;fill-opacity:1"
     sodipodi:nodetypes="cccccssccssscccccccsscccscccccccccc" />
</svg>
